HIERARCHY
ROOT pelvis
{
	OFFSET 0.00 0.00 0.00
	CHANNELS 6 Xposition Yposition Zposition Xrotation Yrotation Zrotation
	JOINT lfemur
	{
		OFFSET 0.00000 4.04436 0.00000
		CHANNELS 3 Xrotation Yrotation Zrotation
		JOINT ltibia
		{
			OFFSET 0.00000 0.00000 -16.29375
			CHANNELS 3 Xrotation Yrotation Zrotation
			JOINT lfoot
			{
				OFFSET 0.00000 0.00000 -15.07135
				CHANNELS 3 Xrotation Yrotation Zrotation
				JOINT ltoes
				{
					OFFSET 4.08523 0.00000 0.00000
					CHANNELS 3 Xrotation Yrotation Zrotation
				}
			}
		}
	}
	JOINT rfemur
	{
		OFFSET 0.00000 -4.04436 0.00000
		CHANNELS 3 Xrotation Yrotation Zrotation
		JOINT rtibia
		{
			OFFSET 0.00000 0.00000 -16.29375
			CHANNELS 3 Xrotation Yrotation Zrotation
			JOINT rfoot
			{
				OFFSET 0.00000 0.00000 -15.07135
				CHANNELS 3 Xrotation Yrotation Zrotation
				JOINT rtoes
				{
					OFFSET 4.08523 0.00000 0.00000
					CHANNELS 3 Xrotation Yrotation Zrotation
				}
			}
		}
	}
	JOINT thorax
	{
		OFFSET -1.96850 0.00000 3.38723
		CHANNELS 6 Xposition Yposition Zposition Xrotation Yrotation Zrotation
		JOINT head
		{
			OFFSET 0.00000 0.00000 16.93583
			CHANNELS 6 Xposition Yposition Zposition Xrotation Yrotation Zrotation
		}
		JOINT lclavicle
		{
			OFFSET 0.00000 0.00000 14.46426
			CHANNELS 3 Xrotation Yrotation Zrotation
			JOINT lhumerus
			{
				OFFSET 0.00000 6.07503 0.73740
				CHANNELS 3 Xrotation Yrotation Zrotation
				JOINT lradius
				{
					OFFSET 0.00000 0.00000 -10.44175
					CHANNELS 3 Xrotation Yrotation Zrotation
					JOINT lhand
					{
						OFFSET 0.00000 0.00000 -9.67100
						CHANNELS 3 Xrotation Yrotation Zrotation
					}
				}
			}
		}
		JOINT rclavicle
		{
			OFFSET 0.00000 0.00000 14.46426
			CHANNELS 3 Xrotation Yrotation Zrotation
			JOINT rhumerus
			{
				OFFSET 0.00000 -6.07503 0.73740
				CHANNELS 3 Xrotation Yrotation Zrotation
				JOINT rradius
				{
					OFFSET 0.00000 0.00000 -10.44175
					CHANNELS 3 Xrotation Yrotation Zrotation
					JOINT rhand
					{
						OFFSET 0.00000 0.00000 -9.67100
						CHANNELS 3 Xrotation Yrotation Zrotation
					}
				}
			}
		}
	}
}
MOTION
Frames: 9
Frame Time:	0.0333333
 41.6122 8.6612 33.1529 1.8250 -0.5510 -86.0551 -4.4024 1.2366 0.0166 -0.0000 6.4088 -0.0000 0.0000 13.7693 4.4947 0.0000 -18.9320 -0.0000 1.6284 4.6974 0.3295 0.0000 1.3525 -0.0000 0.0000 13.6190 -9.6345 0.0000 -20.9952 -0.0000 41.0931 11.6694 36.6290 -0.9924 4.7032 7.0313 41.1041 9.0252 53.4763 -8.8762 -19.2452 -1.0969 -13.5777 0.0000 -10.1235 18.7934 -3.5965 22.2437 0.0000 -24.8167 -56.9354 1.5265 -0.9888 -0.0000 13.9387 -0.0000 9.9592 -17.7473 2.3427 -27.5349 0.0000 -34.2399 58.7678 6.4794 -10.3726 -0.0000
 41.6124 8.6687 33.1560 1.8183 -0.5623 -86.2245 -4.3953 1.2805 0.4050 -0.0000 6.3232 0.0000 0.0000 13.7323 4.2082 0.0000 -18.6464 -0.0000 1.6070 4.6765 0.4483 0.0000 1.3418 -0.0000 0.0000 13.6515 -9.6209 0.0000 -20.9375 -0.0000 41.0884 11.6896 36.6302 -1.0530 4.6633 7.0887 41.0967 9.0727 53.4780 -9.0349 -19.1539 -1.3136 -13.6110 0.0000 -10.0976 18.4901 -3.7671 21.8901 0.0000 -24.7814 -57.1170 1.4389 -1.1720 -0.0000 13.8907 -0.0000 10.0077 -17.5896 2.3595 -27.4509 0.0000 -34.1794 58.8079 6.4577 -10.4287 0.0000
 41.6147 8.6760 33.1576 1.8100 -0.5586 -86.4138 -4.4057 1.3372 0.5630 -0.0000 6.2158 0.0000 0.0000 13.7734 4.2547 0.0000 -18.6558 0.0000 1.5933 4.6321 0.4326 -0.0000 1.3691 0.0000 0.0000 13.6647 -9.4600 0.0000 -20.9175 -0.0000 41.1025 11.6908 36.6260 -1.0531 4.5395 7.1714 41.0963 9.1183 53.4822 -9.1416 -18.9709 -1.4222 -13.7437 0.0000 -9.9348 18.2353 -3.8892 21.7035 0.0000 -24.8288 -57.6483 0.6936 -1.2740 -0.0000 13.9480 -0.0000 9.8875 -17.5954 2.3881 -27.1736 0.0000 -34.1813 58.7061 6.7616 -10.4508 -0.0000
 41.6119 8.6825 33.1568 1.8022 -0.5472 -86.5377 -4.4043 1.3796 0.6297 -0.0000 6.1394 0.0000 0.0000 13.7448 4.3421 0.0000 -18.5623 -0.0000 1.5971 4.6033 0.3638 0.0000 1.3896 -0.0000 0.0000 13.6453 -9.2847 0.0000 -20.8762 -0.0000 41.1216 11.6916 36.6163 -1.0267 4.4261 7.1769 41.1063 9.1553 53.4824 -9.1755 -18.8366 -1.4270 -13.8888 0.0000 -9.7143 17.9865 -3.9541 21.5816 0.0000 -24.8963 -57.5674 0.6794 -1.3586 -0.0000 14.0509 0.0000 9.7840 -17.6428 2.4439 -27.2737 0.0000 -34.2222 58.9749 7.0350 -11.1407 0.0000
 41.6095 8.6958 33.1548 1.7853 -0.5317 -86.5756 -4.3875 1.3833 0.6302 0.0000 6.1263 -0.0000 0.0000 13.7257 4.3813 0.0000 -18.5239 -0.0000 1.6059 4.5886 0.4291 0.0000 1.4019 -0.0000 0.0000 13.6538 -9.2887 0.0000 -20.8961 -0.0000 41.1353 11.7078 36.6122 -1.0198 4.4240 7.0277 41.1244 9.1889 53.4793 -9.0848 -18.8031 -1.3515 -13.8983 0.0000 -9.6408 17.7841 -3.8489 21.4476 0.0000 -25.0864 -57.1240 0.6451 -1.3535 0.0000 14.0459 -0.0000 9.8376 -17.5543 2.4801 -27.0929 0.0000 -34.2279 58.4558 6.3266 -10.5584 0.0000
 41.6053 8.7247 33.1573 1.7281 -0.5183 -86.5073 -4.3537 1.2864 0.6207 -0.0000 6.3228 -0.0000 0.0000 13.7247 4.3149 0.0000 -18.5955 -0.0000 1.6380 4.5633 0.6188 -0.0000 1.4812 0.0000 0.0000 13.6568 -9.5574 0.0000 -20.8705 -0.0000 41.1356 11.7525 36.6208 -1.0507 4.6118 6.8301 41.1415 9.2144 53.4807 -9.0241 -18.9729 -1.3354 -13.7081 0.0000 -9.9646 17.6563 -3.5632 21.2193 0.0000 -25.2710 -56.4957 0.6032 -1.3254 0.0000 13.8847 0.0000 10.0528 -17.2998 2.4800 -27.0507 -0.0000 -34.1889 58.0346 5.7758 -9.9557 0.0000
 41.6010 8.7638 33.1627 1.6478 -0.5000 -86.5450 -4.3278 1.1798 0.5927 -0.0000 6.5604 0.0000 -0.0000 13.6858 4.3826 0.0000 -18.5692 -0.0000 1.6669 4.4891 0.7830 -0.0000 1.6419 0.0000 -0.0000 13.6539 -9.6808 0.0000 -20.7989 -0.0000 41.1168 11.7991 36.6416 -1.1390 4.8687 6.8648 41.1542 9.2256 53.4928 -9.0398 -19.2738 -1.4969 -13.4634 0.0000 -10.4500 17.7141 -3.3081 21.1065 0.0000 -25.1967 -56.4750 0.4374 -1.3866 0.0000 13.7901 -0.0000 10.1542 -17.1107 2.4152 -27.1227 -0.0000 -34.1661 58.4602 6.3574 -10.0577 0.0000
 41.5933 8.8051 33.1697 1.5873 -0.4824 -86.7063 -4.3096 1.1108 0.6574 -0.0000 6.6756 0.0000 0.0000 13.7210 4.4774 0.0000 -18.6010 -0.0000 1.6941 4.3554 0.9058 -0.0000 1.8338 0.0000 0.0000 13.7311 -9.6875 0.0000 -20.9291 -0.0000 41.1154 11.8321 36.6651 -1.1810 5.0533 7.0051 41.1665 9.2382 53.5082 -9.0554 -19.4665 -1.5986 -13.3118 0.0000 -10.7092 17.8458 -3.2732 21.3109 0.0000 -24.7744 -57.0989 0.2892 -1.3239 -0.0000 13.7130 -0.0000 10.2361 -17.1156 2.4242 -26.8530 -0.0000 -34.0869 58.8317 7.0607 -10.3734 0.0000
 41.5828 8.8466 33.1745 1.5640 -0.4438 -87.0147 -4.2747 1.0667 0.8457 -0.0000 6.6915 0.0000 0.0000 13.7404 4.6210 0.0000 -18.6213 0.0000 1.7302 4.1549 0.9432 -0.0000 2.0595 0.0000 0.0000 13.6993 -9.4607 0.0000 -20.8738 0.0000 41.1256 11.8527 36.6796 -1.1670 5.1504 7.2549 41.1817 9.2371 53.5223 -9.0613 -19.6621 -1.5828 -13.3313 0.0000 -10.6801 18.0762 -3.4308 22.1279 0.0000 -24.2075 -58.0382 0.1839 -1.3738 0.0000 13.7277 -0.0000 10.2572 -17.2587 2.4825 -26.4684 -0.0000 -34.1382 58.7269 8.0297 -10.5544 -0.0000
